<svg xmlns="http://www.w3.org/2000/svg" version="1.1" xmlns:xlink="http://www.w3.org/1999/xlink" xmlns:svgjs="http://svgjs.com/svgjs" viewBox="0 0 1440 560">
  <g mask="url(&quot;#SvgjsMask1020&quot;)" fill="none">
    <rect width="1440" height="560" x="0" y="0" fill="rgba(240, 240, 240, 1)"></rect>
    <path d="M0,395.585C90.559,415.978,193.318,472.507,271.511,422.479C349.675,372.47,325.417,250.552,360.775,164.76C394.327,83.351,483.5,19.397,473.701,-68.108C463.896,-155.659,371.654,-205.518,312.044,-270.387C254.384,-333.134,210.342,-414.257,129.865,-442.279C48.052,-470.767,-46.555,-461.088,-123.972,-422.209C-196.322,-385.874,-214.508,-291.969,-275.484,-238.708C-351.206,-172.566,-486.834,-169.357,-521.495,-74.98C-555.177,16.731,-498.09,123.559,-436.336,199.268C-380.235,268.046,-283.803,279.241,-202.861,315.658C-135.211,346.095,-72.37,379.288,0,395.585" fill="#dadada"></path>
    <path d="M1440 986.284C1519.103 990.371 1583.433 929.5799999999999 1651.713 889.431 1722.962 847.5350000000001 1797.713 811.91 1848.045 746.348 1907.153 669.354 1978.954 580.53 1962.2640000000001 484.90999999999997 1945.561 389.21500000000003 1839.142 341.5 1766.187 277.358 1703.201 221.981 1647.691 147.35500000000002 1564.686 135.35700000000003 1483.992 123.69299999999998 1415.499 187.736 1338.873 215.59300000000002 1268.158 241.301 1195.196 252.53699999999998 1131.628 292.794 1048.3600000000001 345.527 939.079 389.012 914.374 484.426 889.805 579.315 948.185 680.986 1011.809 755.548 1068.3899999999999 821.857 1165.16 826.906 1241.896 868.256 1310.962 905.473 1361.65 982.236 1440 986.284" fill="#ffffff"></path>
  </g>
  <defs>
    <mask id="SvgjsMask1020">
      <rect width="1440" height="560" fill="#ffffff"></rect>
    </mask>
  </defs>
</svg>